<svg width="375" height="275" viewBox="0 0 375 275" fill="none" xmlns="http://www.w3.org/2000/svg">
<rect width="375" height="275" rx="15" fill="#3E3E3E"/>
<path d="M11.8892 88.2273V77.0909H56.1364V88.2273H40.8239V128H27.2017V88.2273H11.8892ZM61.3379 128V77.0909H83.3123C87.0907 77.0909 90.3968 77.7786 93.2306 79.1541C96.0645 80.5296 98.2685 82.5099 99.8429 85.0952C101.417 87.6804 102.204 90.7794 102.204 94.392C102.204 98.0379 101.392 101.112 99.7683 103.614C98.1608 106.117 95.8987 108.006 92.9821 109.282C90.082 110.558 86.693 111.196 82.8152 111.196H69.6902V100.457H80.0311C81.6551 100.457 83.0389 100.259 84.1824 99.8608C85.3424 99.4465 86.229 98.7919 86.8422 97.897C87.4719 97.0021 87.7868 95.8338 87.7868 94.392C87.7868 92.9337 87.4719 91.7488 86.8422 90.8374C86.229 89.9093 85.3424 89.2299 84.1824 88.799C83.0389 88.3516 81.6551 88.1278 80.0311 88.1278H75.1589V128H61.3379ZM91.1674 104.634L103.895 128H88.8805L76.4515 104.634H91.1674ZM121.32 128H106.405L123.209 77.0909H142.101L158.905 128H143.991L132.854 91.1108H132.456L121.32 128ZM118.536 107.915H146.576V118.256H118.536V107.915ZM177.63 77.0909V128H163.809V77.0909H177.63ZM228.228 77.0909V128H216.694L198.299 101.253H198.001V128H184.18V77.0909H195.913L214.009 103.739H214.407V77.0909H228.228Z" fill="#FFEE00"/>
<path d="M47.0994 190L55.5511 139.091H91.3466L89.4574 150.227H67.483L66.0909 158.977H85.8778L83.9886 170.114H64.2017L60.9205 190H47.0994ZM110.251 139.091L101.799 190H87.9783L96.43 139.091H110.251ZM160.849 139.091L152.398 190H140.864L126.943 163.253H126.645L122.17 190H108.349L116.801 139.091H128.534L142.256 165.739H142.653L147.028 139.091H160.849ZM172.16 190H157.245L182.501 139.091H201.393L209.745 190H194.83L189.859 153.111H189.461L172.16 190ZM172.756 169.915H200.796L199.006 180.256H170.967L172.756 169.915ZM267.148 139.091L258.697 190H247.162L233.242 163.253H232.944L228.469 190H214.648L223.1 139.091H234.833L248.555 165.739H248.952L253.327 139.091H267.148ZM317.983 158.182H304.162C304.261 157.005 304.195 155.945 303.963 155C303.731 154.055 303.333 153.243 302.77 152.564C302.206 151.868 301.469 151.338 300.557 150.973C299.646 150.608 298.56 150.426 297.301 150.426C294.881 150.426 292.719 151.031 290.813 152.241C288.907 153.434 287.325 155.149 286.065 157.386C284.806 159.607 283.911 162.259 283.381 165.341C282.916 168.324 282.9 170.801 283.331 172.773C283.778 174.746 284.648 176.22 285.941 177.198C287.25 178.176 288.949 178.665 291.037 178.665C292.429 178.665 293.705 178.499 294.865 178.168C296.041 177.836 297.086 177.364 297.997 176.751C298.925 176.121 299.712 175.375 300.358 174.513C301.021 173.635 301.527 172.666 301.875 171.605H315.795C315.265 173.759 314.32 175.964 312.961 178.217C311.603 180.455 309.846 182.518 307.692 184.407C305.537 186.28 303.002 187.796 300.085 188.956C297.168 190.116 293.887 190.696 290.241 190.696C285.469 190.696 281.35 189.652 277.887 187.564C274.44 185.476 271.938 182.427 270.38 178.416C268.839 174.406 268.532 169.517 269.46 163.75C270.388 158.182 272.219 153.517 274.954 149.755C277.688 145.993 281.011 143.159 284.922 141.254C288.833 139.348 292.992 138.395 297.4 138.395C300.731 138.395 303.714 138.834 306.349 139.712C309.001 140.591 311.23 141.875 313.036 143.565C314.859 145.239 316.201 147.302 317.063 149.755C317.925 152.208 318.231 155.017 317.983 158.182ZM319.033 190L327.485 139.091H364.175L362.286 150.227H339.417L338.025 158.977H359.005L357.115 170.114H336.135L334.743 178.864H357.513L355.624 190H319.033Z" fill="#FFEE00"/>
</svg>
